<svg
      xmlns="http://www.w3.org/2000/svg"
      width="114.52"
      height="80.87"
    >
      <style>{".prefix__st0{fill:#080a04}.prefix__st1{fill:#fff}"}</style>
      <path
        className="prefix__st0"
        d="M48.71 73.33L21.65 62.01A3.43 3.43 0 0120 60.56l-5.06-8.94 9.64-1.72 5.53 8.78-.16.03c-2.32.42-4.76.91-6.97 1.7v.12c4.64-1.09 9.42-.7 13.84 1.15 5.23 2.19 9.42 6.23 11.78 11.39l.11.26zM9.99 70.83c.55-1.58.86-3.28.86-5.04 0-6.9-4.57-12.73-10.85-14.63l9.99 19.67zM47.41 68.13l5.31 12.71.35-14.25zM43.65 78.83l8.28 2.04-2.97-6.79zM18.97 28.45L3.25 32.26l9.38 2.32zM44.26 22.63l-8.09 9.95L37.36 0zM27.33 18.85s-1.22-3.78-2.72-5.51-3.63-1.45-4.69-.62c-1.06.82-1.06 2.82.17 4.28s2.48 2.34 2.48 2.34l1.77-2.06-.94 5.34 3.93-3.77zM8.63 29.89V16.26L3.35 31.07zM13.66 19.42l-4.09-3.13v5.44zM35.95 8.09l-5.66-5.55 6.14-2.2zM9.84 71.53l-6.86 1.83 9.24 2.28zM5.02 70.52l-3.01 2.33 6.5-1.76z"
      />
      <path
        className="prefix__st0"
        d="M11.51 15.38l2.04 1.28c4.68-5 10.64-8.68 17.29-10.52l-1.77-1.99c-6.76 2.1-12.81 6.02-17.56 11.23zM72.6 4.1l-4.05 6.02c.87.75 1.72 1.54 2.53 2.37l-2.67 1.72C61.48 7.13 52.28 2.96 42.5 2.46c-.7-.04-1.4-.05-2.09-.05l.25 2.41c.57 0 1.14.01 1.72.04 8.15.42 15.87 3.54 22.06 8.88l-2 2.37 3.27 4.56L79.3 10.23 72.6 4.1zM29.67 20.46l3.82 3.59-1.23 24.19-24.27 4.1-3.83-3.6 25.51-28.28m-.09-2.19L2.01 48.83l5.48 5.15 26.24-4.42 1.33-26.13-5.48-5.16z"
      />
      <path d="M73.78 2.41l7.86 5.68-1.09.94" />
      <path
        className="prefix__st0"
        d="M74.94 78.77l8.33-53.08-14.86-.31-21.6 26.67 21.01 26.41 7.12.31zM88.97 25.9l-8.33 53.08 12.28.31 21.6-26.67-21.01-26.41-4.54-.31z"
      />
      <g>
        <path
          className="prefix__st1"
          d="M72.72 63.24c.38.8-2.26 5.25-2.74 4.93-.86-.95-1.83-2.04-2.9-3.26a884.863 884.863 0 01-6.52-7.52 97.865 97.865 0 00-2.95-3.3c-.55-.85-.83-1.72-.83-2.62 0-1.06.33-1.99.98-2.78l1.16-1.43c.6-.74 1.34-1.62 2.2-2.62.86-1.01 1.77-2.09 2.71-3.26.95-1.17 1.85-2.25 2.72-3.26.86-1.01 1.6-1.89 2.22-2.66.62-.77 1-1.23 1.14-1.39.45-.26 2.93 4.4 2.48 5.25-.59.74-1.33 1.64-2.22 2.7-.9 1.06-1.83 2.17-2.79 3.34-.97 1.17-1.9 2.28-2.79 3.34-.9 1.06-1.64 1.96-2.22 2.7.69.79 1.49 1.71 2.4 2.74.91 1.03 1.84 2.09 2.77 3.18.93 1.09 1.85 2.15 2.77 3.18.92 1.03 1.72 1.94 2.41 2.74z"
        />
      </g>
      <g>
        <path
          className="prefix__st1"
          d="M89.64 40.48c-.38-.8 2.26-5.25 2.74-4.93.86.95 1.83 2.04 2.9 3.26a884.863 884.863 0 016.52 7.52c1.07 1.24 2.05 2.35 2.95 3.3.55.85.83 1.72.83 2.62 0 1.06-.33 1.99-.98 2.78l-1.16 1.43c-.6.74-1.34 1.62-2.2 2.62-.86 1.01-1.77 2.09-2.71 3.26-.95 1.17-1.85 2.25-2.72 3.26-.86 1.01-1.6 1.89-2.22 2.66-.62.77-1 1.23-1.14 1.39-.45.26-2.93-4.4-2.48-5.25.59-.74 1.33-1.64 2.22-2.7.9-1.06 1.83-2.17 2.79-3.34.97-1.17 1.9-2.28 2.79-3.34.9-1.06 1.64-1.96 2.22-2.7-.69-.79-1.49-1.71-2.4-2.74-.91-1.03-1.84-2.09-2.77-3.18-.93-1.09-1.85-2.15-2.77-3.18-.92-1.03-1.72-1.95-2.41-2.74z"
        />
      </g>
    </svg>