<!-- Generator: Adobe Illustrator 24.1.0, SVG Export Plug-In  -->
<svg version="1.1" xmlns="http://www.w3.org/2000/svg" xmlns:xlink="http://www.w3.org/1999/xlink" x="0px" y="0px"
	 width="552.81px" height="552.81px" viewBox="0 0 552.81 552.81" style="enable-background:new 0 0 552.81 552.81;"
	 xml:space="preserve">
<style type="text/css">
	.st0{fill:#EA5B54;}
	.st1{fill:#FFFFFF;}
	.st2{fill:#FFE74D;}
</style>
<defs>
</defs>
<circle fill="currentColor" cx="276.41" cy="276.41" r="276.41"/>
<g>
	<g>
		<circle class="st1" cx="276.41" cy="20.25" r="5.44"/>
		<circle class="st1" cx="276.41" cy="532.56" r="5.44"/>
	</g>
	<g>
		<circle class="st2" cx="210.11" cy="28.98" r="5.44"/>
		<circle class="st2" cx="342.7" cy="523.83" r="5.44"/>
	</g>
	<g>
		<circle class="st1" cx="148.33" cy="54.57" r="5.44"/>
		<circle class="st1" cx="404.48" cy="498.24" r="5.44"/>
	</g>
	<g>
		<circle class="st2" cx="95.28" cy="95.28" r="5.44"/>
		<circle class="st2" cx="457.54" cy="457.54" r="5.44"/>
	</g>
	<g>
		<circle class="st1" cx="54.57" cy="148.33" r="5.44"/>
		<circle class="st1" cx="498.24" cy="404.48" r="5.44"/>
	</g>
	<g>
		<circle class="st2" cx="28.98" cy="210.11" r="5.44"/>
		<circle class="st2" cx="523.83" cy="342.7" r="5.44"/>
	</g>
	<g>
		<circle class="st1" cx="20.25" cy="276.41" r="5.44"/>
		<circle class="st1" cx="532.56" cy="276.41" r="5.44"/>
	</g>
	<g>
		<circle class="st2" cx="28.98" cy="342.7" r="5.44"/>
		<circle class="st2" cx="523.83" cy="210.11" r="5.44"/>
	</g>
	<g>
		<circle class="st1" cx="54.57" cy="404.48" r="5.44"/>
		<circle class="st1" cx="498.24" cy="148.33" r="5.44"/>
	</g>
	<g>
		<circle class="st2" cx="95.28" cy="457.54" r="5.44"/>
		<circle class="st2" cx="457.54" cy="95.28" r="5.44"/>
	</g>
	<g>
		<circle class="st1" cx="148.33" cy="498.24" r="5.44"/>
		<circle class="st1" cx="404.48" cy="54.57" r="5.44"/>
	</g>
	<g>
		<circle class="st2" cx="210.11" cy="523.83" r="5.44"/>
		<circle class="st2" cx="342.7" cy="28.98" r="5.44"/>
	</g>
</g>
</svg>
