<svg
    xmlns="http://www.w3.org/2000/svg"
    viewBox="0 0 213.51 116.73"
    width="200"
  >
    <path fill="#444" d="M15.66 94.96C15.66 85 9.06 76.58 0 73.84l14.42 28.4c.8-2.28 1.24-4.73 1.24-7.28zM76.09 116.69l.52-20.58-8.18 2.22zM63.01 113.79l11.94 2.94-4.29-9.81zM27.38 41.06l-15.07 3.65.14-13.34 7.26-3.34-7.26-4.52v-.04L4.69 46.56l13.54 3.36zM53.32 55.23l14.46-17.45L55.36.15 43.71 3.66l11.24 7.54zM2.9 103.97l13.5 3.63-5.16-7.92z" />
    <path fill="#444" d="M45.36 9.69l-3.39-3.7c-9.77 3.04-18.5 8.69-25.36 16.21l2.95 1.85c6.76-7.21 16.2-11.7 25.8-14.36zM61.34 3.55c.36 2.43.67 4.76 1.1 4.79 11.19.91 20.55 6.11 28.69 12.83l-1.3 3.88 5.87 3.79 15.11-17.54-9.66-8.86-6.57 11.68c1.26 1.08 1.93 1.62 3.1 2.82l-1.09 1.5C87.08 9.84 75.45 4.27 61.34 3.55zM70.14 105.48c-3.41-7.44-8.71-13.7-16.27-16.86-2.87-1.2-5.17-1.88-8.17-2.34-.19-.03-9.24-12.69-9.24-12.69l12.22-2.06 1.92-37.72-7.91-7.44L2.9 70.47l7.91 7.44 11.57-1.95 6.48 11.46c.54.93 1.39 1.67 2.38 2.09l39.06 16.34-.16-.37zM114.21 8.2L102.86 0l9.77 9.55zM32.24 32.11c-.66.66-1.39 1.23-2.19 1.71-.8.49-1.52.81-2.16.98v2.03c1.31-.3 2.58-.83 3.81-1.59 1.23-.76 2.31-1.67 3.24-2.73.93-1.06 1.68-2.21 2.25-3.46.57-1.25.86-2.55.86-3.91 0-1.78-.43-3.28-1.3-4.51-.87-1.23-2.15-1.84-3.84-1.84-1.1 0-2.09.44-2.95 1.33-.87.89-1.3 1.95-1.3 3.18 0 1.27.39 2.25 1.17 2.95.78.7 1.7 1.05 2.76 1.05.34 0 .7.02 1.08.06.38.04.61.15.7.32.08.76-.09 1.52-.51 2.29-.42.77-.96 1.48-1.62 2.14z" />
    <g>
      <path fill="#444" d="M192.17 39.47l-4.89-.31-10.91 53.92 15.2.31 21.94-27.09zM75.56 38.82L53.62 65.91l21.34 26.84 95.12.31 10.91-53.93z" />
    </g>
    <g>
      <path
        fill="#fff"
        d="M191.19 45.3v9.9l8.17 10.55-8.17 11.17V87.2l15.77-21.55zM77.17 86.89v-9.91L69 66.44l8.17-11.18V44.99L61.41 66.54zM109.56 77.42c-.22 3.47-.55 4.4-.72 4.65-.06.09-.24.35-1.04.35H97.36c-.87 0-1.17-.28-1.17-1.12v-7.25h-3.96v7.79c0 2.76 1.57 4.28 4.41 4.28h11.61c1.55 0 2.72-.38 3.5-1.16.83-.94 1.34-3 1.63-6.7l.05-.61-3.81-1.2-.06.97zM85.61 75.45c-.91 3.09-2.33 5.91-4.2 8.39l-.5.66 3.29 2.09.42-.58c2-2.75 3.57-6.01 4.66-9.68l.24-.8-3.71-.76-.2.68z"
      />
      <path
        fill="#fff"
        d="M104.46 80.65l3.08-2.15-5.86-6.48c-1.3 1.07-2.78 2.27-2.78 2.27 2.27 2.17 5.56 6.36 5.56 6.36z"
      />
      <path
        fill="#fff"
        d="M119.77 71.39v-9.45h-16.06V60.1h13.18V45.84h-30.1V60.1h13.05v1.84H84.41v12.83h3.87v-9.22h11.56v1.56h3.74v-1.56h12.41v5.35c0 1.35-.59 1.35-.92 1.35l-4.47.05.83 3.41h4.5l-2.04 1.27 5.87 10.22 3.11-2.2-5.56-9.54c1.58-.53 2.46-1.95 2.46-4.07zm-16.06-22.08h9.26v2.07h-9.26v-2.07zm0 5.39h9.26v1.93h-9.26V54.7zm-3.87 1.93h-9.13V54.7h9.13v1.93zm0-5.26h-9.13V49.3h9.13v2.07z"
      />
      <path
        fill="#fff"
        d="M110.22 71h2.75v-4.4h-3.16v1.19h-18.5V71h18.5zM147.76 69.73l6.09 10.92-17.59.03 11.49-21.1-2.71-4.98-16.6 30.51h33.21l-11.13-20.45zM147.87 50.56l16.66 30.12 2.69-4.95-16.59-30.24zM139.46 45.49l-16.59 30.24 2.69 4.95 16.66-30.12z"
      />
    </g>
  </svg>