<!-- Generator: Adobe Illustrator 24.1.0, SVG Export Plug-In  -->
<svg version="1.1" xmlns="http://www.w3.org/2000/svg" xmlns:xlink="http://www.w3.org/1999/xlink" x="0px" y="0px" width="52.45px"
	 height="49.1px" viewBox="0 0 52.45 49.1" style="enable-background:new 0 0 52.45 49.1;" xml:space="preserve">
<style type="text/css">
	.st0{fill:#333;}
	.st1{opacity:0.5;}
</style>
<defs>
</defs>
<g>
	<rect x="12.17" y="37.26" class="st0" width="3" height="0.59"/>
	<rect x="16.43" y="37.26" class="st0" width="3.04" height="0.59"/>
	<rect x="12.17" y="35.61" class="st0" width="3" height="0.63"/>
	<rect x="16.43" y="35.61" class="st0" width="3.04" height="0.63"/>
	<path class="st0" d="M45.45,32.6l-1.6-0.09l-3.58,16.51l4.99,0.09l7.2-8.29L45.45,32.6z M45.13,47.21v-3.15l2.68-3.42l-2.68-3.23
		v-3.03l5.17,6.23L45.13,47.21z"/>
	<path class="st0" d="M7.2,32.4L0,40.69l7,8.22L38.39,49l3.58-16.51L7.2,32.4z M7.73,37.43l-2.68,3.42l2.68,3.23v3.03l-5.17-6.23
		l5.17-6.6V37.43z M12.36,42.25v-0.98h6.07V40.9h1.04v1.35h-0.9h-0.13H12.36z M17.69,44.54l-1.01,0.66c0,0-1.08-1.28-1.82-1.95
		c0,0,0.49-0.37,0.91-0.69L17.69,44.54z M19.6,44.47c-0.1,1.13-0.26,1.76-0.53,2.05c-0.26,0.24-0.64,0.36-1.15,0.36h-3.81
		c-0.93,0-1.45-0.47-1.45-1.31v-2.38h1.3v2.22c0,0.26,0.1,0.34,0.38,0.34h3.42c0.26,0,0.32-0.08,0.34-0.11
		c0.06-0.08,0.16-0.36,0.24-1.42l0.02-0.3l1.25,0.37L19.6,44.47z M21.7,47.21l-1.93-3.13l0.67-0.39h-1.48l-0.27-1.04l1.47-0.02
		c0.11,0,0.3,0,0.3-0.41v-1.64h-4.07v0.48h-1.23v-0.48h-3.79v2.82h-0.81l1.22,0.23l-0.08,0.24C11.34,45,10.83,46,10.17,46.84
		l-0.14,0.18l-1.08-0.64l0.16-0.2c0.61-0.76,1.08-1.62,1.38-2.57l0.07-0.21H10.1v-3.93h5.06v-0.56h-4.28v-4.37h9.87v4.37h-4.32v0.56
		h5.27v2.89c0,0.65-0.29,1.08-0.81,1.25l1.82,2.92L21.7,47.21z M22.72,43.7l5.44-9.26l0.91,1.55l-5.47,9.22L22.72,43.7z
		 M24.54,46.57l5.45-9.34l0.89,1.52l-3.77,6.46l5.77-0.01l-2-3.34l0.91-1.55l3.65,6.26H24.54z M36.38,45.21l-5.47-9.22l0.91-1.55
		l5.44,9.26L36.38,45.21z"/>
	<polygon class="st0" points="16.25,30.64 20.55,31.08 18.65,29.22 	"/>
	<polygon class="st0" points="21.37,13.44 16.86,14.95 16.39,11.49 18.5,10.35 16.08,9.45 16.08,9.44 14.58,15.71 18.89,16.07 	"/>
	<path class="st0" d="M19.83,27.83c-0.38-2.58-2.75-4.51-5.65-4.89l5.54,6.82C19.89,29.14,19.93,28.49,19.83,27.83z"/>
	<polygon class="st0" points="29.92,16.14 33.7,11.09 28.42,1.81 24.96,3.15 28.72,4.68 	"/>
	<polygon class="st0" points="38.68,25.86 36.24,26.74 39.31,31.21 	"/>
	<polygon class="st0" points="37.26,28.88 35.17,30.94 38.96,31.26 	"/>
	<path class="st0" d="M17.68,23.6l3.49-0.94l2.44,2.73c0.2,0.22,0.49,0.38,0.81,0.45l12.68,2.78l-0.06-0.09
		c-1.34-1.8-3.22-3.22-5.67-3.76c-0.93-0.2-1.67-0.29-2.61-0.3c-0.06,0-3.34-2.94-3.34-2.94l3.69-0.99l-0.86-9.84l-2.73-1.63
		l-10.57,12.9L17.68,23.6z"/>
	<polygon class="st0" points="46.88,1.7 43.07,0 46.45,2.11 	"/>
	<path class="st0" d="M25.7,4.65l-1.19-0.83c-2.9,1.15-5.37,2.94-7.2,5.14l0.98,0.37C20.11,7.21,22.84,5.69,25.7,4.65z"/>
	<path class="st0" d="M22.52,10.94c-0.18,0.2-0.38,0.37-0.61,0.52c-0.23,0.16-0.44,0.27-0.63,0.33l0.08,0.53
		c0.39-0.13,0.76-0.31,1.11-0.55c0.35-0.24,0.65-0.52,0.89-0.83c0.25-0.31,0.43-0.63,0.56-0.98c0.13-0.34,0.17-0.69,0.11-1.04
		c-0.07-0.46-0.26-0.83-0.58-1.12c-0.32-0.29-0.73-0.4-1.26-0.33c-0.34,0.04-0.63,0.19-0.86,0.45c-0.23,0.26-0.33,0.55-0.28,0.87
		c0.05,0.33,0.21,0.57,0.47,0.72c0.27,0.15,0.56,0.21,0.89,0.17c0.1-0.01,0.22-0.02,0.34-0.02c0.12,0,0.19,0.02,0.23,0.06
		c0.05,0.19,0.03,0.4-0.07,0.61C22.84,10.54,22.7,10.75,22.52,10.94z"/>
	<path class="st0" d="M30.92,3.66c3.49-0.18,6.57,0.82,9.34,2.25l-0.25,1.05l1.96,0.76l3.98-5.1L42.63,0.7l-1.58,3.27
		c0.43,0.23,0.66,0.35,1.07,0.61l-0.28,0.43c-3.27-1.87-7.07-2.88-11.45-2.54C30.6,3.08,30.79,3.67,30.92,3.66z"/>
</g>
<g class="st1">
	<polygon class="st0" points="8.02,31.08 12.67,31.08 15.72,28.53 13.14,24.49 	"/>
	<polygon class="st0" points="30.51,18.07 31.02,22.35 35.19,24.29 39.34,24.68 31.86,15.43 	"/>
	<polygon class="st0" points="39.34,24.68 42.36,31.08 44.66,31.26 	"/>
	<polygon class="st0" points="21.51,27.78 22.02,30.07 21.91,31.08 33.35,31.08 33.35,29.76 22.57,26.99 	"/>
</g>
</svg>
