<?xml version="1.0" encoding="utf-8"?>
<!-- Generator: Adobe Illustrator 24.1.0, SVG Export Plug-In . SVG Version: 6.00 Build 0)  -->
<svg version="1.1" id="图层_1" xmlns="http://www.w3.org/2000/svg" xmlns:xlink="http://www.w3.org/1999/xlink" x="0px" y="0px"
	 viewBox="0 0 1366 768" style="enable-background:new 0 0 1366 768;" xml:space="preserve">
<style type="text/css">
	.st0{opacity:0.5;}
	.st1{fill:#4690FF;}
	.st2{fill:#CCCCCC;}
	.st3{fill:#FFFFFF;}
	.st4{fill:none;stroke:#FF0000;stroke-miterlimit:10;}
	.st5{fill:#FF0000;}
	.st6{fill:#E0D7A0;}
	.st7{fill:#E4FF97;}
	.st8{fill:#D6FFE0;}
	.st9{fill:#E0A0A0;}
	.st10{fill:#FF0000;stroke:#FFFFFF;stroke-miterlimit:10;}
</style>
<g class="st0">
	<polygon class="st1" points="271.7,436 624.7,257.1 1268.8,467.6 906.4,667.5 	"/>
	<g>
		<path class="st2" d="M624.8,257.6l642.7,210.1L906.3,666.9L273,435.9L624.8,257.6 M624.7,256.5L270.5,436l635.9,232L1270,467.5
			L624.7,256.5L624.7,256.5z"/>
	</g>
</g>
<g class="st0">
	<polygon class="st1" points="265.1,396.5 618.1,217.6 1262.2,428.2 899.8,628 	"/>
	<g>
		<path class="st2" d="M618.2,218.2l642.7,210.1L899.8,627.4l-633.4-231L618.2,218.2 M618.1,217.1L263.9,396.6l635.9,232
			l363.6-200.5L618.1,217.1L618.1,217.1z"/>
	</g>
</g>
<g>
	<polygon class="st1" points="265.1,351.8 618.1,172.9 1262.2,383.5 899.8,583.3 	"/>
	<g>
		<path class="st2" d="M618.2,173.4l642.7,210.1L899.8,582.7l-633.4-231L618.2,173.4 M618.1,172.4L263.9,351.9l635.9,232
			l363.6-200.5L618.1,172.4L618.1,172.4z"/>
	</g>
</g>
<g class="st0">
	<path class="st3" d="M1082.4,528.4c-2.3,0-4.5-0.4-6.7-1.2l-1.1-0.4c-2-0.7-3.4-2.5-3.6-4.6s0.7-4.1,2.6-5.3l1.4-0.9
		c3-1.9,6.6-2.9,10.2-2.9c2.4,0,4.8,0.5,7.1,1.4l0.8,0.3c2,0.8,3.3,2.6,3.5,4.8c0.1,2.2-1,4.1-2.8,5.2l-2.1,1.2
		C1088.8,527.6,1085.6,528.4,1082.4,528.4z"/>
	<g>
		<path class="st2" d="M1085.2,513.6L1085.2,513.6c2.4,0,4.7,0.4,6.9,1.3l0.8,0.3c1.9,0.7,3,2.4,3.2,4.4c0.1,2-0.8,3.8-2.6,4.7
			l-2.1,1.2c-2.8,1.5-5.9,2.3-9,2.3c-2.2,0-4.4-0.4-6.5-1.2l-1.1-0.4c-1.8-0.7-3.1-2.3-3.3-4.2c-0.2-2,0.7-3.7,2.3-4.8l1.4-0.9
			C1078.3,514.6,1081.7,513.6,1085.2,513.6 M1085.2,512.6c-3.6,0-7.2,1-10.4,3l-1.4,0.9c-4.3,2.7-3.6,9,1.1,10.8l1.1,0.4
			c2.2,0.8,4.5,1.2,6.8,1.2c3.3,0,6.6-0.8,9.5-2.4l2.1-1.2c4.5-2.5,4.1-9-0.7-10.9l-0.8-0.3C1090.2,513.1,1087.7,512.6,1085.2,512.6
			L1085.2,512.6z"/>
	</g>
</g>
<g>
	<path class="st1" d="M1125.8,502.1c-2.3,0-4.5-0.4-6.7-1.2l-1.1-0.4c-2-0.8-3.4-2.5-3.6-4.6c-0.2-2.1,0.7-4.1,2.6-5.3l1.4-0.9
		c3-1.9,6.6-2.9,10.2-2.9c2.4,0,4.8,0.5,7.1,1.4l0.8,0.3c2,0.8,3.3,2.6,3.5,4.8c0.1,2.2-1,4.1-2.8,5.2l-2.1,1.2
		C1132.2,501.3,1129,502.1,1125.8,502.1z"/>
	<g>
		<path class="st2" d="M1128.7,487.3L1128.7,487.3c2.4,0,4.7,0.4,6.9,1.3l0.8,0.3c1.9,0.7,3,2.4,3.2,4.4c0.1,2-0.8,3.8-2.6,4.7
			l-2.1,1.2c-2.8,1.5-5.9,2.3-9,2.3c-2.2,0-4.4-0.4-6.5-1.2l-1.1-0.4c-1.8-0.7-3.1-2.3-3.3-4.2c-0.2-2,0.7-3.7,2.3-4.8l1.4-0.9
			C1121.7,488.3,1125.2,487.3,1128.7,487.3 M1128.7,486.3c-3.6,0-7.2,1-10.4,3l-1.4,0.9c-4.3,2.7-3.6,9,1.1,10.8l1.1,0.4
			c2.2,0.8,4.5,1.2,6.8,1.2c3.3,0,6.6-0.8,9.5-2.4l2.1-1.2c4.5-2.5,4.1-9-0.7-10.9l-0.8-0.3C1133.6,486.8,1131.1,486.3,1128.7,486.3
			L1128.7,486.3z"/>
	</g>
</g>
<g class="st0">
	<path class="st3" d="M1167.9,478.4c-2.3,0-4.5-0.4-6.7-1.2l-1.1-0.4c-2-0.7-3.4-2.5-3.6-4.6s0.7-4.1,2.6-5.3l1.4-0.9
		c3-1.9,6.6-2.9,10.2-2.9c2.4,0,4.8,0.5,7.1,1.4l0.8,0.3c2,0.8,3.3,2.6,3.5,4.8c0.1,2.2-1,4.1-2.8,5.2l-2.1,1.2
		C1174.3,477.6,1171.1,478.4,1167.9,478.4z"/>
	<g>
		<path class="st2" d="M1170.7,463.6L1170.7,463.6c2.4,0,4.7,0.4,6.9,1.3l0.8,0.3c1.9,0.7,3,2.4,3.2,4.4c0.1,2-0.8,3.8-2.6,4.7
			l-2.1,1.2c-2.8,1.5-5.9,2.3-9,2.3c-2.2,0-4.4-0.4-6.5-1.2l-1.1-0.4c-1.8-0.7-3.1-2.3-3.3-4.2c-0.2-2,0.7-3.7,2.3-4.8l1.4-0.9
			C1163.8,464.6,1167.2,463.6,1170.7,463.6 M1170.7,462.6c-3.6,0-7.2,1-10.4,3l-1.4,0.9c-4.3,2.7-3.6,9,1.1,10.8l1.1,0.4
			c2.2,0.8,4.5,1.2,6.8,1.2c3.3,0,6.6-0.8,9.5-2.4l2.1-1.2c4.5-2.5,4.1-9-0.7-10.9l-0.8-0.3C1175.7,463.1,1173.2,462.6,1170.7,462.6
			L1170.7,462.6z"/>
	</g>
</g>
<g>
	<path d="M55.1,375.2c8.3-0.7,13.9-2.5,16.7-5.4c2.8-2.9,4.2-8.3,4.2-16.2c0-1.3-0.1-2.7-0.2-4.4c2.1,0.5,4.3,0.8,6.5,1
		c-0.9,1.2-1.5,4.4-2,9.7c-0.5,6.1-2,10.3-4.4,12.6c-2.5,2.3-8.2,5-17.1,7.8C58.1,378.7,56.9,377,55.1,375.2z M55.2,334.6
		c0.2-1.3,0.3-2.3,0.3-3c0-0.6-0.1-1.4-0.2-2.5c0.7,0,1.3,0.1,1.7,0.1c0.9,0.1,1.4,0.1,1.8,0.1h38.7c0.8,0,2.4-0.1,4.8-0.4
		c-0.2,1.3-0.4,2.4-0.4,3c0,0.6,0.1,1.5,0.3,2.8c-1.4-0.2-3-0.4-4.8-0.4H82l-2.2,6.8h11.7c0.3,0,0.9,0,1.9-0.1c0.4,0,1,0,1.9-0.1
		c-0.1,0.7-0.1,1.3-0.1,1.6c-0.1,1-0.1,1.7-0.1,2.2v18.5c0,0.4,0,1.1,0.1,2.3c0.1,1.2,0.1,1.9,0.1,2.2c-1.1-0.1-2-0.2-2.5-0.2
		c-0.6,0-1.5,0.1-2.6,0.2c0-0.3,0-1.1,0.1-2.2c0.1-1.1,0.1-1.9,0.1-2.2v-17.8H67.1v18.8c0,1.6,0.1,3,0.3,4.4c-1.1-0.2-2-0.2-2.7-0.2
		c-0.5,0-1.2,0.1-2.3,0.2c0.1-0.9,0.1-1.6,0.1-2.1c0.1-1.1,0.1-1.9,0.1-2.3v-18.9c0-0.5,0-1.4-0.1-2.6l-0.1-1.8
		c0.9,0,1.6,0.1,2.1,0.1c1.1,0.1,1.8,0.1,2.2,0.1h8.9l1.3-6.8H59.1C57.7,334.3,56.4,334.4,55.2,334.6z M80.5,370.5
		c1.1-1.1,2.1-2.3,3-3.6c5.4,3,10.9,6.2,16.6,9.5c-1.5,1.3-2.9,2.8-4,4.4C91.4,376.8,86.2,373.3,80.5,370.5z"/>
	<path d="M109,330.5l3.1,0.1l4.3,0.1h34.5l6.3-0.1l3.2-0.1c-0.1,1.1-0.1,2-0.1,2.7c0,0.5,0,1.3,0.1,2.4l-3.5-0.1l-6-0.1h-14l-1.7,7
		h12.4l4.5-0.1l3.9-0.1c0,0.1,0,1-0.1,2.4c-0.1,1.5-0.1,2.5-0.1,3.1v24.8l0.1,4.3l0.1,3.9c-1.3-0.1-2.2-0.2-2.8-0.2
		c-0.6,0-1.6,0.1-2.8,0.2c0-0.6,0-1,0.1-1.3c0.1-0.8,0.1-1.2,0.1-1.4v-1.3h-32.4v1.3c0,0.5,0.1,1.4,0.2,2.8
		c-1.2-0.2-2.2-0.3-2.7-0.3c-0.6,0-1.5,0.1-2.6,0.2c0.2-3.6,0.3-7.1,0.3-10.7v-22.7c0-0.5,0-1.5-0.1-3.1c-0.1-1.1-0.1-1.8-0.1-2
		l4.3,0.1l4,0.1h8.7l1.7-7h-15.7l-3.7,0.1l-3.5,0.1c0.1-1.1,0.1-2,0.1-2.6C109.1,332.4,109,331.6,109,330.5z M118.2,372.7h7v-26.1
		h-7V372.7z M129.2,352.7h9.7v-6.1h-9.7V352.7z M129.2,362h9.7v-6.1h-9.7V362z M129.2,372.7h9.7v-7.5h-9.7V372.7z M143.1,346.6v26.1
		h7.5v-26.1H143.1z"/>
</g>
<g>
	<path d="M1122.1,162.1c6.4-2.3,10.6-5.1,12.5-8.4c1.9-3.3,2.9-9.3,2.9-18.1h-9.5c-0.3,0-0.9,0-1.9,0.1c-1,0.1-1.7,0.1-2,0.1
		c0.1-1.2,0.2-2.1,0.2-2.8c0-0.5-0.1-1.3-0.2-2.4c0.7,0.1,1.2,0.1,1.6,0.1c0.9,0.1,1.6,0.1,1.9,0.1h39c0.2,0,0.7,0,1.6-0.1
		c0.4,0,1-0.1,1.8-0.1c-0.1,1.1-0.2,2-0.2,2.6c0,0.6,0.1,1.4,0.2,2.6c-0.7,0-1.2-0.1-1.6-0.1c-0.9-0.1-1.6-0.1-2-0.1h-11.7v21.2
		l0,1.1c0,0.8,0.8,1.2,2.4,1.2h5.7c1.8,0,3-0.5,3.6-1.5c0.6-1,1-3.1,1.1-6.4c1.7,1.6,3.6,2.7,5.7,3.3c-0.2,0.8-0.3,1.4-0.4,1.8
		c-0.7,3-1.6,5.1-2.6,6c-1,1-2.8,1.5-5.3,1.5h-8.9c-2.4,0-4-0.3-4.8-1c-0.8-0.7-1.1-2.1-1.1-4.2v-23h-7.7c0,8.2-0.7,14.1-2.1,17.8
		c-1.4,3.8-5.9,8.1-13.4,12.9C1125.6,164.7,1124,163.3,1122.1,162.1z M1129.7,121.5c0.1-1.1,0.2-2,0.2-2.6c0-0.5-0.1-1.4-0.2-2.5
		c0.8,0,1.4,0.1,1.8,0.1c0.9,0.1,1.6,0.1,1.9,0.1h28.1c0.3,0,0.9,0,1.9-0.1c1-0.1,1.7-0.1,2.1-0.1c-0.1,1.2-0.2,2.1-0.2,2.7
		c0,0.5,0.1,1.3,0.2,2.4c-0.7,0-1.1-0.1-1.5-0.1c-0.9-0.1-1.5-0.1-1.9-0.1h-28.8c-0.3,0-0.8,0-1.8,0.1
		C1131.1,121.4,1130.5,121.4,1129.7,121.5z"/>
	<path d="M1177.5,138.1c0.1-0.9,0.2-1.6,0.2-2.1c0-0.5-0.1-1.3-0.2-2.4c1.9,0.3,3.9,0.4,5.8,0.4h18.5v-3.9H1191
		c-2.8,0-5.3,0.1-7.4,0.3c0.1-0.8,0.2-1.4,0.2-1.9s-0.1-1.1-0.2-2.1c2,0.2,4.5,0.3,7.7,0.3h10.6v-4.4h-12.9c-2.2,0-4.8,0.1-7.8,0.4
		c0.1-0.9,0.2-1.6,0.2-2.1c0-0.5-0.1-1.2-0.2-2.2c2.4,0.2,5,0.3,7.7,0.3h13v-3.8c0-0.7-0.1-1.4-0.3-2.1c1.9,0.3,3.4,0.5,4.3,0.5
		l1.3,0c-0.6,0.5-0.9,1.2-0.9,2.1v3.3h12.5c2.7,0,5.2-0.2,7.4-0.5c-0.1,0.9-0.1,1.7-0.1,2.2c0,0.5,0.1,1.2,0.2,2.2
		c-2-0.2-4.3-0.3-7-0.3h-13v4.4h11.4c2.8,0,5-0.1,6.4-0.4c-0.1,0.8-0.2,1.4-0.2,1.9c0,0.5,0.1,1.2,0.2,2.1c-1.3-0.2-3.3-0.3-6.1-0.3
		H1206v3.9h15.9c2.7,0,5.1-0.1,7.4-0.4c-0.2,1-0.3,1.8-0.3,2.2c0,0.5,0.1,1.2,0.3,2.2c-2.6-0.2-4.7-0.4-6.6-0.4h-15.4l-11.3,4.8
		l13.9-0.7c2.2-1,4-2,5.4-3.1c1.3,1.4,2.6,2.6,4.1,3.7c-1.6,0.1-4.9,1.3-10.1,3.6c-3.6,1.6-7.7,3.2-12.4,4.6l19.1-1.3
		c-0.9-0.8-1.8-1.4-2.6-1.9c1.5-0.7,2.7-1.5,3.6-2.4c1.1,1.2,2.4,2.5,4.1,4l4.1,3.6l0.8,0.8c-1.6,0.6-3.1,1.4-4.3,2.5
		c-0.6-1.1-1.4-2.2-2.5-3.4l-12.6,0.7v8c0,2-0.4,3.2-1.2,3.7c-0.8,0.5-3,1-6.7,1.4l-0.6,0.1c0-1.5-0.6-3-1.7-4.5
		c1.1,0.2,2.4,0.3,3.9,0.3c1.3,0,2-0.5,2-1.4V160v-6.6l-17.2,2c-0.3-1.6-0.8-3.1-1.8-4.5c0.4-0.1,0.6-0.1,0.6-0.1l4.6-0.6
		c2.4-0.3,6.2-1.5,11.5-3.6l4-1.6l1.7-0.7l-19.6,2.3c-0.4-1.8-0.9-3-1.5-3.8c2.3,0,7.6-1.7,15.8-5.1h-17.3
		C1181,137.8,1179.1,137.9,1177.5,138.1z M1177.9,161c5.9-1.1,11.2-3.2,15.9-6.2c1.4,1.6,2.8,2.7,4.2,3.3c-2.3,0.5-4.8,1.3-7.5,2.6
		c-3.3,1.6-6.4,3-9.1,4.1C1180.3,163.2,1179.2,161.9,1177.9,161z M1210.2,158.6c1.2-1.1,2.1-2.3,2.7-3.5c6.1,2.5,11.2,4.2,15.3,5.4
		c-1.2,1.3-2.4,2.7-3.3,4.3C1221.8,162.3,1216.9,160.2,1210.2,158.6z"/>
</g>
<g>
	<polyline class="st3" points="247.2,353.8 192,353.8 247.2,427.5 	"/>
	<g>
		<polyline class="st4" points="241.2,353.8 192,353.8 243.6,422.7 		"/>
		<g>
			<path class="st5" d="M247.2,353.8c-2.8-1.1-6.4-2.9-8.5-4.8l1.7,4.8l-1.7,4.8C240.9,356.7,244.4,354.9,247.2,353.8z"/>
		</g>
		<g>
			<path class="st5" d="M247.2,427.5c-2.5-1.6-6.1-3.4-8.9-4l4.8-1.5l2.8-4.2C245.7,420.7,246.4,424.6,247.2,427.5z"/>
		</g>
	</g>
</g>
<g>
	<line class="st3" x1="247.2" y1="390.7" x2="192" y2="353.8"/>
	<g>
		<line class="st4" x1="242.2" y1="387.3" x2="192" y2="353.8"/>
		<g>
			<path class="st5" d="M247.2,390.7c-1.8-2.5-3.7-5.9-4.5-8.7l-1.2,4.9l-4.1,3C240.3,389.5,244.3,390,247.2,390.7z"/>
		</g>
	</g>
</g>
<g>
	<path class="st6" d="M726.5,319.1c-11.6,0-22.2-1.4-30.6-4.1c-11.5-3.7-18.1-9.5-18.7-16.5c-0.7-8.5,7.4-17.9,22.5-25.8
		c18.7-9.9,45.5-16,69.9-16c11.6,0,22.2,1.4,30.6,4.1c11.5,3.7,18.1,9.5,18.7,16.5c0.7,8.5-7.4,17.9-22.5,25.8
		C777.7,313,750.9,319.1,726.5,319.1z"/>
	<path class="st7" d="M769.6,256.3v1c11.6,0,22.1,1.4,30.4,4.1c11.3,3.6,17.8,9.3,18.4,16c0.7,8.3-7.4,17.5-22.2,25.3
		c-18.7,9.8-45.4,15.9-69.7,15.9c-11.6,0-22.1-1.4-30.4-4.1c-11.3-3.6-17.8-9.3-18.4-16c-0.7-8.3,7.4-17.5,22.2-25.3
		c18.6-9.8,45.4-15.9,69.7-15.9L769.6,256.3 M769.6,256.3c-23.7,0-50.7,5.8-70.2,16c-28.9,15.2-30.5,34.5-3.7,43.1
		c8.7,2.8,19.3,4.1,30.7,4.1c23.7,0,50.7-5.8,70.2-16c28.9-15.2,30.5-34.5,3.7-43.1C791.6,257.6,781,256.3,769.6,256.3L769.6,256.3z
		"/>
</g>
<g>
	<path class="st8" d="M652,459.8c-6.9,0-13.1-0.8-18-2.4c-6.7-2.2-10.6-5.5-10.9-9.6c-0.4-4.9,4.4-10.4,13.2-15
		c11-5.8,26.9-9.4,41.3-9.4c6.9,0,13.1,0.8,18,2.4c6.7,2.2,10.6,5.5,10.9,9.6c0.4,4.9-4.4,10.4-13.2,15
		C682.2,456.2,666.4,459.8,652,459.8z"/>
	<path class="st7" d="M677.5,422.8v1c6.8,0,13,0.8,17.9,2.4c6.5,2.1,10.3,5.3,10.6,9.1c0.4,4.7-4.3,10-12.9,14.6
		c-11,5.8-26.7,9.4-41,9.4c-6.8,0-13-0.8-17.9-2.4c-6.5-2.1-10.3-5.3-10.6-9.1c-0.4-4.7,4.3-10,12.9-14.6c11-5.8,26.7-9.4,41-9.4
		L677.5,422.8 M677.5,422.8c-14,0-30,3.4-41.5,9.5c-17.1,9-18,20.4-2.2,25.5c5.1,1.7,11.4,2.4,18.2,2.4c14,0,30-3.4,41.5-9.5
		c17.1-9,18-20.4,2.2-25.5C690.5,423.6,684.2,422.8,677.5,422.8L677.5,422.8z"/>
</g>
<g>
	<polygon class="st6" points="683.6,398.3 883.9,278.8 1019.8,322.5 819.5,441.9 	"/>
	<path class="st7" d="M884,279.3l134.7,43.3L819.5,441.4l-134.7-43.3L884,279.3 M883.8,278.2L682.4,398.4l137.2,44.1L1021,322.3
		L883.8,278.2L883.8,278.2z"/>
</g>
<g>
	<polygon class="st9" points="482.6,388.2 517.2,335.9 633.5,309.1 714.2,335 679.5,387.3 563.3,414.1 	"/>
	<path class="st7" d="M633.5,309.6l79.9,25.7l-34.2,51.6l-115.9,26.7l-79.9-25.7l34.2-51.6L633.5,309.6 M633.5,308.6l-116.6,26.9
		l-35.1,53l81.5,26.2l116.6-26.9l35.1-53L633.5,308.6L633.5,308.6z"/>
</g>
<g>
	<g>
		<polyline class="st4" points="971.5,296.3 1093.1,144.1 833,269.6 		"/>
		<g>
			<path class="st5" d="M967.8,301c2.6-1.6,6.2-3.2,9.1-3.7l-4.8-1.6l-2.6-4.3C969.5,294.2,968.7,298.1,967.8,301z"/>
		</g>
		<g>
			<path class="st5" d="M827.6,272.3c2.1-2.2,4.5-5.3,5.6-8l0.5,5l3.6,3.5C834.5,272.1,830.6,272,827.6,272.3z"/>
		</g>
	</g>
</g>
<g>
	<g>
		<line class="st4" x1="557.1" y1="319.1" x2="1093.3" y2="144.7"/>
		<g>
			<path class="st5" d="M551.3,320.9c3,0.1,6.9,0.7,9.6,1.9l-3.1-4l0.2-5.1C556.5,316.3,553.7,319.1,551.3,320.9z"/>
		</g>
	</g>
</g>
<g>
	<g>
		<line class="st4" x1="1093.3" y1="144.7" x2="651.1" y2="430.8"/>
		<g>
			<path class="st5" d="M646,434.1c1.8-2.4,3.8-5.9,4.6-8.6l1.1,4.9l4,3.1C652.9,433,649,433.4,646,434.1z"/>
		</g>
	</g>
</g>
<circle class="st10" cx="189.3" cy="354.5" r="10.5"/>
<circle class="st10" cx="1099.9" cy="142" r="10.5"/>
</svg>
